REM DIRINDEX 1\2,1\3,1\4\5,1\4\6
REM DIRNAME "folder01","folder02","folder03","folder04","folder05","folder06"
TITLE ""
FILE "Step4_Track58.mp3" MP3
  TRACK 01 AUDIO
    TITLE "0:"
    INDEX 01 00:00:00
  TRACK 02 AUDIO
    TITLE "6:cjc167_1046"
    INDEX 01 00:00:24
  TRACK 03 AUDIO
    TITLE "0:"
    INDEX 01 00:01:63
  TRACK 04 AUDIO
    TITLE "6:cjc167_1047"
    INDEX 01 00:02:43
  TRACK 05 AUDIO
    TITLE "0:"
    INDEX 01 00:03:67
  TRACK 06 AUDIO
    TITLE "5:cjc167_1048"
    INDEX 01 00:04:22
  TRACK 07 AUDIO
    TITLE "0:"
    INDEX 01 00:05:66
  TRACK 08 AUDIO
    TITLE "6:cjc167_1049"
    INDEX 01 00:06:42
  TRACK 09 AUDIO
    TITLE "0:"
    INDEX 01 00:07:63
  TRACK 10 AUDIO
    TITLE "5:cjc167_1050"
    INDEX 01 00:08:20
  TRACK 11 AUDIO
    TITLE "0:"
    INDEX 01 00:10:30
  TRACK 12 AUDIO
    TITLE "6:cjc167_1051"
    INDEX 01 00:11:14
  TRACK 13 AUDIO
    TITLE "0:"
    INDEX 01 00:12:41
  TRACK 14 AUDIO
    TITLE "5:cjc167_1052"
    INDEX 01 00:12:74
  TRACK 15 AUDIO
    TITLE "0:"
    INDEX 01 00:15:47
  TRACK 16 AUDIO
    TITLE "6:cjc167_1053"
    INDEX 01 00:16:23
  TRACK 17 AUDIO
    TITLE "0:"
    INDEX 01 00:17:48
  TRACK 18 AUDIO
    TITLE "5:cjc167_1054"
    INDEX 01 00:17:71
  TRACK 19 AUDIO
    TITLE "0:"
    INDEX 01 00:20:66
  TRACK 20 AUDIO
    TITLE "6:cjc167_1055"
    INDEX 01 00:21:46
  TRACK 21 AUDIO
    TITLE "0:"
    INDEX 01 00:22:69
  TRACK 22 AUDIO
    TITLE "5:cjc167_1056"
    INDEX 01 00:23:31
  TRACK 23 AUDIO
    TITLE "0:"
    INDEX 01 00:25:26
  TRACK 24 AUDIO
    TITLE "6:cjc167_1057"
    INDEX 01 00:26:08
  TRACK 25 AUDIO
    TITLE "0:"
    INDEX 01 00:27:35
  TRACK 26 AUDIO
    TITLE "5:cjc167_1058"
    INDEX 01 00:27:52
  TRACK 27 AUDIO
    TITLE "0:"
    INDEX 01 00:30:02
  TRACK 28 AUDIO
    TITLE "6:cjc167_1059"
    INDEX 01 00:30:58
  TRACK 29 AUDIO
    TITLE "0:"
    INDEX 01 00:32:10
  TRACK 30 AUDIO
    TITLE "5:cjc167_1060"
    INDEX 01 00:32:36
  TRACK 31 AUDIO
    TITLE "0:"
    INDEX 01 00:35:22
  TRACK 32 AUDIO
    TITLE "6:cjc167_1061"
    INDEX 01 00:36:04
  TRACK 33 AUDIO
    TITLE "0:"
    INDEX 01 00:37:13
  TRACK 34 AUDIO
    TITLE "5:cjc167_1062"
    INDEX 01 00:37:49
  TRACK 35 AUDIO
    TITLE "0:"
    INDEX 01 00:39:30
  TRACK 36 AUDIO
    TITLE "6:cjc167_1063"
    INDEX 01 00:40:08
  TRACK 37 AUDIO
    TITLE "0:"
    INDEX 01 00:41:39
  TRACK 38 AUDIO
    TITLE "5:cjc167_1064"
    INDEX 01 00:41:72
  TRACK 39 AUDIO
    TITLE "0:"
    INDEX 01 00:44:74
  TRACK 40 AUDIO
    TITLE "6:cjc167_1065"
    INDEX 01 00:45:56
  TRACK 41 AUDIO
    TITLE "0:"
    INDEX 01 00:47:08
  TRACK 42 AUDIO
    TITLE "5:cjc167_1066"
    INDEX 01 00:47:37
  TRACK 43 AUDIO
    TITLE "0:"
    INDEX 01 00:50:16
  TRACK 44 AUDIO
    TITLE "6:cjc167_1067"
    INDEX 01 00:50:59
  TRACK 45 AUDIO
    TITLE "0:"
    INDEX 01 00:52:13
  TRACK 46 AUDIO
    TITLE "5:cjc167_1068"
    INDEX 01 00:52:50
  TRACK 47 AUDIO
    TITLE "0:"
    INDEX 01 00:56:21
  TRACK 48 AUDIO
    TITLE "6:cjc167_1069"
    INDEX 01 00:57:04
  TRACK 49 AUDIO
    TITLE "0:"
    INDEX 01 00:58:29
  TRACK 50 AUDIO
    TITLE "5:cjc167_1070"
    INDEX 01 00:58:67
  TRACK 51 AUDIO
    TITLE "0:"
    INDEX 01 01:00:46
  TRACK 52 AUDIO
    TITLE "6:cjc167_1071"
    INDEX 01 01:01:30
  TRACK 53 AUDIO
    TITLE "0:"
    INDEX 01 01:03:01
  TRACK 54 AUDIO
    TITLE "5:cjc167_1072"
    INDEX 01 01:03:25
  TRACK 55 AUDIO
    TITLE "0:"
    INDEX 01 01:05:27
  TRACK 56 AUDIO
    TITLE "6:cjc167_1073"
    INDEX 01 01:06:15
  TRACK 57 AUDIO
    TITLE "0:"
    INDEX 01 01:07:64
  TRACK 58 AUDIO
    TITLE "5:cjc167_1074"
    INDEX 01 01:08:20
  TRACK 59 AUDIO
    TITLE "0:"
    INDEX 01 01:09:60
  TRACK 60 AUDIO
    TITLE "6:cjc167_1075"
    INDEX 01 01:10:40
  TRACK 61 AUDIO
    TITLE "0:"
    INDEX 01 01:12:12
  TRACK 62 AUDIO
    TITLE "5:cjc167_1076"
    INDEX 01 01:12:37
  TRACK 63 AUDIO
    TITLE "0:"
    INDEX 01 01:14:34
  TRACK 64 AUDIO
    TITLE "6:cjc167_1077"
    INDEX 01 01:15:10
  TRACK 65 AUDIO
    TITLE "0:"
    INDEX 01 01:16:60
  TRACK 66 AUDIO
    TITLE "5:cjc167_1078"
    INDEX 01 01:17:05
  TRACK 67 AUDIO
    TITLE "0:"
    INDEX 01 01:19:27
  TRACK 68 AUDIO
    TITLE "6:cjc167_1079"
    INDEX 01 01:20:13
  TRACK 69 AUDIO
    TITLE "0:"
    INDEX 01 01:21:62
  TRACK 70 AUDIO
    TITLE "5:cjc167_1080"
    INDEX 01 01:22:22
  TRACK 71 AUDIO
    TITLE "0:"
    INDEX 01 01:23:64
  TRACK 72 AUDIO
    TITLE "6:cjc167_1081"
    INDEX 01 01:24:50
  TRACK 73 AUDIO
    TITLE "0:"
    INDEX 01 01:26:16
  TRACK 74 AUDIO
    TITLE "5:cjc167_1082"
    INDEX 01 01:26:43
  TRACK 75 AUDIO
    TITLE "0:"
    INDEX 01 01:27:72
  TRACK 76 AUDIO
    TITLE "6:cjc167_1083"
    INDEX 01 01:28:58
  TRACK 77 AUDIO
    TITLE "0:"
    INDEX 01 01:30:27
  TRACK 78 AUDIO
    TITLE "5:cjc167_1084"
    INDEX 01 01:30:66
  TRACK 79 AUDIO
    TITLE "0:"
    INDEX 01 01:33:49
  TRACK 80 AUDIO
    TITLE "6:cjc167_1085"
    INDEX 01 01:34:31
  TRACK 81 AUDIO
    TITLE "0:"
    INDEX 01 01:35:58
  TRACK 82 AUDIO
    TITLE "5:cjc167_1086"
    INDEX 01 01:36:12
  TRACK 83 AUDIO
    TITLE "0:"
    INDEX 01 01:38:43
  TRACK 84 AUDIO
    TITLE "6:cjc167_1087"
    INDEX 01 01:39:30
  TRACK 85 AUDIO
    TITLE "0:"
    INDEX 01 01:40:73
  TRACK 86 AUDIO
    TITLE "5:cjc167_1088"
    INDEX 01 01:41:29
  TRACK 87 AUDIO
    TITLE "0:"
    INDEX 01 01:45:39
  TRACK 88 AUDIO
    TITLE "6:cjc167_1089"
    INDEX 01 01:46:18
  TRACK 89 AUDIO
    TITLE "0:"
    INDEX 01 01:47:69
  TRACK 90 AUDIO
    TITLE "5:cjc167_1090"
    INDEX 01 01:48:23
  TRACK 91 AUDIO
    TITLE "0:"
    INDEX 01 01:51:31
  TRACK 92 AUDIO
    TITLE "6:cjc167_1091"
    INDEX 01 01:52:13
  TRACK 93 AUDIO
    TITLE "0:"
    INDEX 01 01:53:62
  TRACK 94 AUDIO
    TITLE "5:cjc167_1092"
    INDEX 01 01:54:18
  TRACK 95 AUDIO
    TITLE "0:"
    INDEX 01 01:57:09
  TRACK 96 AUDIO
    TITLE "6:cjc167_1093"
    INDEX 01 01:57:69
  TRACK 97 AUDIO
    TITLE "0:"
    INDEX 01 01:59:45
  TRACK 98 AUDIO
    TITLE "5:cjc167_1094"
    INDEX 01 02:00:03
  TRACK 99 AUDIO
    TITLE "0:"
    INDEX 01 02:03:46
  TRACK 100 AUDIO
    TITLE "6:cjc167_1095"
    INDEX 01 02:04:36
  TRACK 101 AUDIO
    TITLE "0:"
    INDEX 01 02:06:13
  TRACK 102 AUDIO
    TITLE "5:cjc167_1096"
    INDEX 01 02:06:37
  TRACK 103 AUDIO
    TITLE "0:"
    INDEX 01 02:09:33
  TRACK 104 AUDIO
    TITLE "6:cjc167_1097"
    INDEX 01 02:10:15
  TRACK 105 AUDIO
    TITLE "0:"
    INDEX 01 02:11:65
  TRACK 106 AUDIO
    TITLE "5:cjc167_1098"
    INDEX 01 02:12:18
  TRACK 107 AUDIO
    TITLE "0:"
    INDEX 01 02:15:53
  TRACK 108 AUDIO
    TITLE "6:cjc167_1099"
    INDEX 01 02:16:31
  TRACK 109 AUDIO
    TITLE "0:"
    INDEX 01 02:18:07
  TRACK 110 AUDIO
    TITLE "5:cjc167_1100"
    INDEX 01 02:18:30
  TRACK 111 AUDIO
    TITLE "0:"
    INDEX 01 02:21:03
  TRACK 112 AUDIO
    TITLE "6:cjc167_1101"
    INDEX 01 02:21:56
  TRACK 113 AUDIO
    TITLE "0:"
    INDEX 01 02:23:14
  TRACK 114 AUDIO
    TITLE "5:cjc167_1102"
    INDEX 01 02:23:55
  TRACK 115 AUDIO
    TITLE "0:"
    INDEX 01 02:26:18
  TRACK 116 AUDIO
    TITLE "6:cjc167_1103"
    INDEX 01 02:27:04
  TRACK 117 AUDIO
    TITLE "0:"
    INDEX 01 02:28:50
  TRACK 118 AUDIO
    TITLE "5:cjc167_1104"
    INDEX 01 02:29:09
  TRACK 119 AUDIO
    TITLE "0:"
    INDEX 01 02:33:36
  TRACK 120 AUDIO
    TITLE "6:cjc167_1105"
    INDEX 01 02:34:16
  TRACK 121 AUDIO
    TITLE "0:"
    INDEX 01 02:35:40
  TRACK 122 AUDIO
    TITLE "5:cjc167_1106"
    INDEX 01 02:35:72
  TRACK 123 AUDIO
    TITLE "0:"
    INDEX 01 02:38:45
  TRACK 124 AUDIO
    TITLE "6:cjc167_1107"
    INDEX 01 02:39:23
  TRACK 125 AUDIO
    TITLE "0:"
    INDEX 01 02:40:67
  TRACK 126 AUDIO
    TITLE "5:cjc167_1108"
    INDEX 01 02:41:22
  TRACK 127 AUDIO
    TITLE "0:"
    INDEX 01 02:43:71
  TRACK 128 AUDIO
    TITLE "6:cjc167_1109"
    INDEX 01 02:44:53
  TRACK 129 AUDIO
    TITLE "0:"
    INDEX 01 02:46:25
  TRACK 130 AUDIO
    TITLE "5:cjc167_1110"
    INDEX 01 02:46:58
  TRACK 131 AUDIO
    TITLE "0:"
    INDEX 01 02:49:46
  TRACK 132 AUDIO
    TITLE "6:cjc167_1111"
    INDEX 01 02:50:30
  TRACK 133 AUDIO
    TITLE "0:"
    INDEX 01 02:52:04
  TRACK 134 AUDIO
    TITLE "5:cjc167_1112"
    INDEX 01 02:52:33
  TRACK 135 AUDIO
    TITLE "0:"
    INDEX 01 02:55:06
  TRACK 136 AUDIO
    TITLE "6:cjc167_1113"
    INDEX 01 02:55:63
  TRACK 137 AUDIO
    TITLE "0:"
    INDEX 01 02:57:34
  TRACK 138 AUDIO
    TITLE "5:cjc167_1114"
    INDEX 01 02:57:68
  TRACK 139 AUDIO
    TITLE "0:"
    INDEX 01 03:01:10
  TRACK 140 AUDIO
    TITLE "6:cjc167_1115"
    INDEX 01 03:01:65
  TRACK 141 AUDIO
    TITLE "0:"
    INDEX 01 03:03:33
  TRACK 142 AUDIO
    TITLE "5:cjc167_1116"
    INDEX 01 03:03:60
  TRACK 143 AUDIO
    TITLE "0:"
    INDEX 01 03:06:66
  TRACK 144 AUDIO
    TITLE "6:cjc167_1117"
    INDEX 01 03:07:46
  TRACK 145 AUDIO
    TITLE "0:"
    INDEX 01 03:09:22
  TRACK 146 AUDIO
    TITLE "5:cjc167_1118"
    INDEX 01 03:09:45
  TRACK 147 AUDIO
    TITLE "0:"
    INDEX 01 03:12:08
  TRACK 148 AUDIO
    TITLE "6:cjc167_1119"
    INDEX 01 03:12:69
  TRACK 149 AUDIO
    TITLE "0:"
    INDEX 01 03:14:43
  TRACK 150 AUDIO
    TITLE "5:cjc167_1120"
    INDEX 01 03:14:66
  TRACK 151 AUDIO
    TITLE "0:"
    INDEX 01 03:18:60
  TRACK 152 AUDIO
    TITLE "6:cjc167_1121"
    INDEX 01 03:19:48
  TRACK 153 AUDIO
    TITLE "0:"
    INDEX 01 03:21:05
  TRACK 154 AUDIO
    TITLE "5:cjc167_1122"
    INDEX 01 03:21:46
  TRACK 155 AUDIO
    TITLE "0:"
    INDEX 01 03:23:71
  TRACK 156 AUDIO
    TITLE "6:cjc167_1123"
    INDEX 01 03:24:55
  TRACK 157 AUDIO
    TITLE "0:"
    INDEX 01 03:26:26
  TRACK 158 AUDIO
    TITLE "5:cjc167_1124"
    INDEX 01 03:26:63
  TRACK 159 AUDIO
    TITLE "0:"
    INDEX 01 03:29:46
  TRACK 160 AUDIO
    TITLE "6:cjc167_1125"
    INDEX 01 03:30:30
  TRACK 161 AUDIO
    TITLE "0:"
    INDEX 01 03:31:51
  TRACK 162 AUDIO
    TITLE "5:cjc167_1126"
    INDEX 01 03:32:07
  TRACK 163 AUDIO
    TITLE "0:"
    INDEX 01 03:34:26
  TRACK 164 AUDIO
    TITLE "6:cjc167_1127"
    INDEX 01 03:35:09
  TRACK 165 AUDIO
    TITLE "0:"
    INDEX 01 03:36:50
  TRACK 166 AUDIO
    TITLE "5:cjc167_1128"
    INDEX 01 03:37:06
  TRACK 167 AUDIO
    TITLE "0:"
    INDEX 01 03:39:58
  TRACK 168 AUDIO
    TITLE "6:cjc167_1129"
    INDEX 01 03:40:42
  TRACK 169 AUDIO
    TITLE "0:"
    INDEX 01 03:42:17
  TRACK 170 AUDIO
    TITLE "5:cjc167_1130"
    INDEX 01 03:42:54
  TRACK 171 AUDIO
    TITLE "0:"
    INDEX 01 03:45:29
  TRACK 172 AUDIO
    TITLE "6:cjc167_1131"
    INDEX 01 03:46:07
  TRACK 173 AUDIO
    TITLE "0:"
    INDEX 01 03:47:58
  TRACK 174 AUDIO
    TITLE "5:cjc167_1132"
    INDEX 01 03:48:10
  TRACK 175 AUDIO
    TITLE "0:"
    INDEX 01 03:51:53
  TRACK 176 AUDIO
    TITLE "6:cjc167_1133"
    INDEX 01 03:52:31
  TRACK 177 AUDIO
    TITLE "0:"
    INDEX 01 03:54:05
  TRACK 178 AUDIO
    TITLE "5:cjc167_1134"
    INDEX 01 03:54:36
  TRACK 179 AUDIO
    TITLE "0:"
    INDEX 01 03:58:01
  TRACK 180 AUDIO
    TITLE "6:cjc167_1135"
    INDEX 01 03:58:61
  TRACK 181 AUDIO
    TITLE "0:"
    INDEX 01 04:00:29
  TRACK 182 AUDIO
    TITLE "5:cjc167_1136"
    INDEX 01 04:00:62
  TRACK 183 AUDIO
    TITLE "0:"
    INDEX 01 04:03:41
  TRACK 184 AUDIO
    TITLE "6:cjc167_1137"
    INDEX 01 04:04:17
  TRACK 185 AUDIO
    TITLE "0:"
    INDEX 01 04:05:67
  TRACK 186 AUDIO
    TITLE "5:cjc167_1138"
    INDEX 01 04:06:18
  TRACK 187 AUDIO
    TITLE "0:"
    INDEX 01 04:09:42
  TRACK 188 AUDIO
    TITLE "6:cjc167_1139"
    INDEX 01 04:10:27
  TRACK 189 AUDIO
    TITLE "0:"
    INDEX 01 04:12:01
  TRACK 190 AUDIO
    TITLE "5:cjc167_1140"
    INDEX 01 04:12:38
  TRACK 191 AUDIO
    TITLE "0:"
    INDEX 01 04:15:11
  TRACK 192 AUDIO
    TITLE "6:cjc167_1141"
    INDEX 01 04:15:72
  TRACK 193 AUDIO
    TITLE "0:"
    INDEX 01 04:17:31
  TRACK 194 AUDIO
    TITLE "5:cjc167_1142"
    INDEX 01 04:17:69
  TRACK 195 AUDIO
    TITLE "0:"
    INDEX 01 04:20:32
  TRACK 196 AUDIO
    TITLE "6:cjc167_1143"
    INDEX 01 04:21:15
  TRACK 197 AUDIO
    TITLE "0:"
    INDEX 01 04:22:64
  TRACK 198 AUDIO
    TITLE "5:cjc167_1144"
    INDEX 01 04:23:22
  TRACK 199 AUDIO
    TITLE "0:"
    INDEX 01 04:27:06
  TRACK 200 AUDIO
    TITLE "6:cjc167_1145"
    INDEX 01 04:27:61
  TRACK 201 AUDIO
    TITLE "0:"
    INDEX 01 04:29:17
  TRACK 202 AUDIO
    TITLE "5:cjc167_1146"
    INDEX 01 04:29:50
  TRACK 203 AUDIO
    TITLE "0:"
    INDEX 01 04:32:72
  TRACK 204 AUDIO
    TITLE "6:cjc167_1147"
    INDEX 01 04:33:60
  TRACK 205 AUDIO
    TITLE "0:"
    INDEX 01 04:35:31
  TRACK 206 AUDIO
    TITLE "5:cjc167_1148"
    INDEX 01 04:35:57
  TRACK 207 AUDIO
    TITLE "0:"
    INDEX 01 04:39:31
  TRACK 208 AUDIO
    TITLE "6:cjc167_1149"
    INDEX 01 04:40:09
  TRACK 209 AUDIO
    TITLE "0:"
    INDEX 01 04:41:59
  TRACK 210 AUDIO
    TITLE "5:cjc167_1150"
    INDEX 01 04:42:08
  TRACK 211 AUDIO
    TITLE "0:"
    INDEX 01 04:46:33
  TRACK 212 AUDIO
    TITLE "6:cjc167_1151"
    INDEX 01 04:47:21
  TRACK 213 AUDIO
    TITLE "0:"
    INDEX 01 04:48:69
  TRACK 214 AUDIO
    TITLE "5:cjc167_1152"
    INDEX 01 04:49:29
  TRACK 215 AUDIO
    TITLE "0:"
    INDEX 01 04:51:69
  TRACK 216 AUDIO
    TITLE "6:cjc167_1153"
    INDEX 01 04:52:55
  TRACK 217 AUDIO
    TITLE "0:"
    INDEX 01 04:54:30
  TRACK 218 AUDIO
    TITLE "5:cjc167_1154"
    INDEX 01 04:54:60
  TRACK 219 AUDIO
    TITLE "0:"
    INDEX 01 04:58:62
  TRACK 220 AUDIO
    TITLE "6:cjc167_1155"
    INDEX 01 04:59:41
  TRACK 221 AUDIO
    TITLE "0:"
    INDEX 01 05:01:11
  TRACK 222 AUDIO
    TITLE "5:cjc167_1156"
    INDEX 01 05:01:50
  TRACK 223 AUDIO
    TITLE "0:"
    INDEX 01 05:05:40
  TRACK 224 AUDIO
    TITLE "6:cjc167_1157"
    INDEX 01 05:06:20
  TRACK 225 AUDIO
    TITLE "0:"
    INDEX 01 05:07:72
  TRACK 226 AUDIO
    TITLE "5:cjc167_1158"
    INDEX 01 05:08:27
  TRACK 227 AUDIO
    TITLE "0:"
    INDEX 01 05:11:62
  TRACK 228 AUDIO
    TITLE "6:cjc167_1159"
    INDEX 01 05:12:34
  TRACK 229 AUDIO
    TITLE "0:"
    INDEX 01 05:14:10
  TRACK 230 AUDIO
    TITLE "5:cjc167_1160"
    INDEX 01 05:14:33
  TRACK 231 AUDIO
    TITLE "0:"
    INDEX 01 05:18:02
